<?xml version="1.0" encoding="UTF-8"?>
<svg width="352px" height="61px" viewBox="0 0 352 61" version="1.1" xmlns="http://www.w3.org/2000/svg" xmlns:xlink="http://www.w3.org/1999/xlink">
    <!-- Generator: Sketch 52.2 (67145) - http://www.bohemiancoding.com/sketch -->
    <title>logo</title>
    <desc>Created with Sketch.</desc>
    <defs>
        <path d="M67,16.875 L67,21.625 C67,22.9366927 65.9553472,24 64.6666667,24 L41.3333333,24 C40.0446528,24 39,22.9366927 39,21.625 L39,16.875 C39,15.5633073 40.0446528,14.5 41.3333333,14.5 L64.6666667,14.5 C65.9553472,14.5 67,15.5633073 67,16.875 Z M64.6666667,12.9166667 C65.1803215,12.9162083 65.68892,13.0199059 66.1627708,13.2217057 L61.4704861,6.05756771 C61.0377046,5.39686496 60.3091643,5.00001256 59.5290069,5 L46.4709931,5 C45.6908463,5.00000254 44.9623164,5.39685927 44.5295625,6.05756771 L39.8372292,13.2217057 C40.31108,13.0199059 40.8196785,12.9162083 41.3333333,12.9166667 L64.6666667,12.9166667 Z M62.3333333,17.6666667 C61.4742292,17.6666667 60.7777778,18.3755547 60.7777778,19.25 C60.7777778,20.1244453 61.4742292,20.8333333 62.3333333,20.8333333 C63.1924375,20.8333333 63.8888889,20.1244453 63.8888889,19.25 C63.8888889,18.3755547 63.1924375,17.6666667 62.3333333,17.6666667 Z M57.6666667,17.6666667 C56.8075625,17.6666667 56.1111111,18.3755547 56.1111111,19.25 C56.1111111,20.1244453 56.8075625,20.8333333 57.6666667,20.8333333 C58.5257708,20.8333333 59.2222222,20.1244453 59.2222222,19.25 C59.2222222,18.3755547 58.5257708,17.6666667 57.6666667,17.6666667 Z" id="path-1"></path>
        <path d="M157.410714,23.4375 L156.428571,23.4375 L156.428571,1.171875 C156.428571,0.524658203 155.900915,0 155.25,0 L138.75,0 C138.099085,0 137.571429,0.524658203 137.571429,1.171875 L137.571429,23.4375 L136.589286,23.4375 C136.263853,23.4375 136,23.6998535 136,24.0234375 L136,25 L158,25 L158,24.0234375 C158,23.6998535 157.736147,23.4375 157.410714,23.4375 Z M142.285714,3.7109375 C142.285714,3.38735352 142.549567,3.125 142.875,3.125 L144.839286,3.125 C145.164719,3.125 145.428571,3.38735352 145.428571,3.7109375 L145.428571,5.6640625 C145.428571,5.98764648 145.164719,6.25 144.839286,6.25 L142.875,6.25 C142.549567,6.25 142.285714,5.98764648 142.285714,5.6640625 L142.285714,3.7109375 Z M142.285714,8.3984375 C142.285714,8.07485352 142.549567,7.8125 142.875,7.8125 L144.839286,7.8125 C145.164719,7.8125 145.428571,8.07485352 145.428571,8.3984375 L145.428571,10.3515625 C145.428571,10.6751465 145.164719,10.9375 144.839286,10.9375 L142.875,10.9375 C142.549567,10.9375 142.285714,10.6751465 142.285714,10.3515625 L142.285714,8.3984375 Z M144.839286,15.625 L142.875,15.625 C142.549567,15.625 142.285714,15.3626465 142.285714,15.0390625 L142.285714,13.0859375 C142.285714,12.7623535 142.549567,12.5 142.875,12.5 L144.839286,12.5 C145.164719,12.5 145.428571,12.7623535 145.428571,13.0859375 L145.428571,15.0390625 C145.428571,15.3626465 145.164719,15.625 144.839286,15.625 Z M148.571429,23.4375 L145.428571,23.4375 L145.428571,19.3359375 C145.428571,19.0123535 145.692424,18.75 146.017857,18.75 L147.982143,18.75 C148.307576,18.75 148.571429,19.0123535 148.571429,19.3359375 L148.571429,23.4375 Z M151.714286,15.0390625 C151.714286,15.3626465 151.450433,15.625 151.125,15.625 L149.160714,15.625 C148.835281,15.625 148.571429,15.3626465 148.571429,15.0390625 L148.571429,13.0859375 C148.571429,12.7623535 148.835281,12.5 149.160714,12.5 L151.125,12.5 C151.450433,12.5 151.714286,12.7623535 151.714286,13.0859375 L151.714286,15.0390625 Z M151.714286,10.3515625 C151.714286,10.6751465 151.450433,10.9375 151.125,10.9375 L149.160714,10.9375 C148.835281,10.9375 148.571429,10.6751465 148.571429,10.3515625 L148.571429,8.3984375 C148.571429,8.07485352 148.835281,7.8125 149.160714,7.8125 L151.125,7.8125 C151.450433,7.8125 151.714286,8.07485352 151.714286,8.3984375 L151.714286,10.3515625 Z M151.714286,5.6640625 C151.714286,5.98764648 151.450433,6.25 151.125,6.25 L149.160714,6.25 C148.835281,6.25 148.571429,5.98764648 148.571429,5.6640625 L148.571429,3.7109375 C148.571429,3.38735352 148.835281,3.125 149.160714,3.125 L151.125,3.125 C151.450433,3.125 151.714286,3.38735352 151.714286,3.7109375 L151.714286,5.6640625 Z" id="path-3"></path>
    </defs>
    <g id="Page-1" stroke="none" stroke-width="1" fill="none" fill-rule="evenodd">
        <g id="Artboard" transform="translate(-176.000000, -49.000000)">
            <g id="header" transform="translate(-2.000000, 1.000000)">
                <g id="logo" transform="translate(177.000000, 41.000000)">
                    <text id="PEAKS" font-family="ProximaNova-Semibold, Proxima Nova" font-size="35" font-weight="500" fill="#080808">
                        <tspan x="0" y="32">PEAKS</tspan>
                    </text>
                    <text id="Keys,-Equipment,-Acc" font-family="ProximaNova-Semibold, Proxima Nova" font-size="22" font-weight="500" fill="#080808">
                        <tspan x="0" y="63">Keys, Equipment, Access and Space</tspan>
                    </text>
                    <g id="symbollogo" transform="translate(122.000000, 7.000000)">
                        <g id="key" transform="translate(108.000000, 1.000000)" fill="#A5A5A5" fill-rule="nonzero">
                            <path d="M23,7.90629492 C23,12.272791 19.4602461,15.8125 15.09375,15.8125 C14.5897266,15.8125 14.0969336,15.764793 13.6190996,15.6746348 L12.5404355,16.8881543 C12.335842,17.1183238 12.0425823,17.2500111 11.734627,17.25 L10.0625,17.25 L10.0625,19.046875 C10.0625,19.6423145 9.57981445,20.125 8.984375,20.125 L7.1875,20.125 L7.1875,21.921875 C7.1875,22.5173145 6.70481445,23 6.109375,23 L1.078125,23 C0.482685547,23 0,22.5173145 0,21.921875 L0,18.4153184 C0,18.1293906 0.113607422,17.8551426 0.315755859,17.6529492 L7.58420508,10.3845 C7.32711719,9.60492578 7.1875,8.77193945 7.1875,7.90625 C7.1875,3.53975391 10.727209,4.4921875e-05 15.0937051,0 C19.4730938,-4.4921875e-05 23,3.52686133 23,7.90629492 Z M15.09375,5.75 C15.09375,6.94087891 16.0591211,7.90625 17.25,7.90625 C18.4408789,7.90625 19.40625,6.94087891 19.40625,5.75 C19.40625,4.55912109 18.4408789,3.59375 17.25,3.59375 C16.0591211,3.59375 15.09375,4.55912109 15.09375,5.75 Z" id="Shape"></path>
                        </g>
                        <path d="M98.28125,2 L74.71875,2 C73.217207,2 72,3.23119792 72,4.75 L72,21.25 C72,22.7688021 73.217207,24 74.71875,24 L98.28125,24 C99.782793,24 101,22.7688021 101,21.25 L101,4.75 C101,3.23119792 99.782793,2 98.28125,2 Z M81.96875,6.58333333 C84.1584766,6.58333333 85.9335938,8.37885417 85.9335938,10.59375 C85.9335938,12.8086458 84.1584766,14.6041667 81.96875,14.6041667 C79.7790234,14.6041667 78.0039062,12.8086458 78.0039062,10.59375 C78.0039062,8.37885417 79.7790234,6.58333333 81.96875,6.58333333 Z M88.3125,18.2135417 C88.3125,18.8780104 87.7799648,19.4166667 87.1230469,19.4166667 L76.8144531,19.4166667 C76.1575352,19.4166667 75.625,18.8780104 75.625,18.2135417 L75.625,17.2850156 C75.625,16.1808906 76.3678984,15.2183906 77.4269082,14.9506094 L79.1940957,14.5037344 C80.6363926,15.5530885 82.8867812,15.8545 84.7434043,14.5037344 L86.5105918,14.9506094 C87.5696016,15.2183906 88.3125,16.1808333 88.3125,17.2850156 L88.3125,18.2135417 Z M97.375,15.9791667 C97.375,16.3588385 97.0706699,16.6666667 96.6953125,16.6666667 L90.8046875,16.6666667 C90.4293301,16.6666667 90.125,16.3588385 90.125,15.9791667 L90.125,15.5208333 C90.125,15.1411615 90.4293301,14.8333333 90.8046875,14.8333333 L96.6953125,14.8333333 C97.0706699,14.8333333 97.375,15.1411615 97.375,15.5208333 L97.375,15.9791667 Z M97.375,12.3125 C97.375,12.6921719 97.0706699,13 96.6953125,13 L90.8046875,13 C90.4293301,13 90.125,12.6921719 90.125,12.3125 L90.125,11.8541667 C90.125,11.4744948 90.4293301,11.1666667 90.8046875,11.1666667 L96.6953125,11.1666667 C97.0706699,11.1666667 97.375,11.4744948 97.375,11.8541667 L97.375,12.3125 Z M97.375,8.64583333 C97.375,9.02550521 97.0706699,9.33333333 96.6953125,9.33333333 L90.8046875,9.33333333 C90.4293301,9.33333333 90.125,9.02550521 90.125,8.64583333 L90.125,8.1875 C90.125,7.80782812 90.4293301,7.5 90.8046875,7.5 L96.6953125,7.5 C97.0706699,7.5 97.375,7.80782812 97.375,8.1875 L97.375,8.64583333 Z" id="address-card" fill="#A5A5A5" fill-rule="nonzero"></path>
                        <mask id="mask-2" fill="white">
                            <use xlink:href="#path-1"></use>
                        </mask>
                        <use id="hdd" fill="#A5A5A5" fill-rule="nonzero" xlink:href="#path-1"></use>
                        <mask id="mask-4" fill="white">
                            <use xlink:href="#path-3"></use>
                        </mask>
                        <use id="building" fill="#A5A5A5" fill-rule="nonzero" xlink:href="#path-3"></use>
                        <path d="M15,5 C17.7182813,5 19.921875,7.20359375 19.921875,9.921875 C19.921875,12.6401562 17.7182813,14.84375 15,14.84375 C12.2817187,14.84375 10.078125,12.6401562 10.078125,9.921875 C10.078125,7.20359375 12.2817187,5 15,5 Z M20.3185781,15.1890312 L18.4444219,14.7204687 C16.1396719,16.3782031 13.3460156,16.0082656 11.555625,14.7204687 L9.68146875,15.1890312 C8.17898438,15.5646406 7.125,16.9145469 7.125,18.46325 L7.125,21.3125 C7.125,22.2444687 7.88053125,23 8.8125,23 L21.1875,23 C22.1194688,23 22.875,22.2444687 22.875,21.3125 L22.875,18.46325 C22.875,16.9145469 21.8210156,15.5646406 20.3185781,15.1890312 Z M24.75,16.0625 C26.5621875,16.0625 28.03125,14.5934375 28.03125,12.78125 C28.03125,10.9690625 26.5621875,9.5 24.75,9.5 C22.9378125,9.5 21.46875,10.9690625 21.46875,12.78125 C21.46875,14.5934375 22.9378125,16.0625 24.75,16.0625 Z M5.25,16.0625 C7.0621875,16.0625 8.53125,14.5934375 8.53125,12.78125 C8.53125,10.9690625 7.0621875,9.5 5.25,9.5 C3.4378125,9.5 1.96875,10.9690625 1.96875,12.78125 C1.96875,14.5934375 3.4378125,16.0625 5.25,16.0625 Z M6.375,21.3125 L6.375,18.46325 C6.375,17.6874219 6.59029687,16.9536875 6.97045313,16.3257969 C5.56476563,17.0157969 4.00157812,16.7339844 2.95373438,15.9803281 L1.70428125,16.2927031 C0.70265625,16.5430625 0,17.4430625 0,18.4754844 L0,20.375 C0,20.9963281 0.503671875,21.5 1.125,21.5 L6.38292188,21.5 C6.37789449,21.4376237 6.37525194,21.3750781 6.375,21.3125 Z M28.2957188,16.2926562 L27.0462656,15.9802812 C25.7372813,16.9218125 24.1920469,16.8818281 23.0250469,16.318625 C23.4079219,16.9481094 23.625,17.6844219 23.625,18.46325 L23.625,21.3125 C23.625,21.3756406 23.6218125,21.4380312 23.6170781,21.5 L28.875,21.5 C29.4963281,21.5 30,20.9963281 30,20.375 L30,18.4754844 C30,17.4430625 29.2973438,16.5430625 28.2957188,16.2926562 Z" id="users" fill="#A5A5A5" fill-rule="nonzero"></path>
                    </g>
                </g>
            </g>
        </g>
    </g>
</svg>