<?xml version="1.0" encoding="UTF-8"?>
<svg width="68px" height="68px" viewBox="0 0 68 68" version="1.1" xmlns="http://www.w3.org/2000/svg" xmlns:xlink="http://www.w3.org/1999/xlink">
    <!-- Generator: Sketch 51.2 (57519) - http://www.bohemiancoding.com/sketch -->
    <title>symbollogo</title>
    <desc>Created with Sketch.</desc>
    <defs></defs>
    <g id="Page-1" stroke="none" stroke-width="1" fill="none" fill-rule="evenodd">
        <g id="Artboard" transform="translate(-100.000000, -20.000000)" fill="#1F1F1F">
            <g id="header">
                <g id="symbollogo" transform="translate(100.000000, 20.000000)">
                    <g id="lock" transform="translate(39.804878, 34.829268)">
                        <path d="M11.5437916,26.2008894 C10.1783259,26.2008894 9.07012195,25.1004865 9.07012195,23.7446328 C9.07012195,22.3887792 10.1783259,21.2883762 11.5437916,21.2883762 C12.9092572,21.2883762 14.0174612,22.3887792 14.0174612,23.7446328 C14.0174612,25.1004865 12.9092572,26.2008894 11.5437916,26.2008894 M19.789357,14.7383585 L6.59645233,14.7383585 L6.59645233,8.18834084 C6.59645233,5.47990854 8.81615854,3.27582759 11.5437916,3.27582759 C14.2714246,3.27582759 16.4911308,5.47990854 16.4911308,8.18834084 L16.4911308,9.82584526 L19.789357,9.82584526 L19.789357,8.18834084 C19.789357,3.67374116 16.0903963,0.000818752209 11.5437916,0.000818752209 C6.99718681,0.000818752209 3.29822616,3.67374116 3.29822616,8.18834084 L3.29822616,14.7383585 C1.47925443,14.7383585 0,16.2055625 0,18.0133674 L0,29.4758983 C0,31.2820657 1.47925443,32.7509071 3.29822616,32.7509071 L19.789357,32.7509071 C21.6083287,32.7509071 23.0875831,31.2820657 23.0875831,29.4758983 L23.0875831,18.0133674 C23.0875831,16.2055625 21.6083287,14.7383585 19.789357,14.7383585" id="Fill-186"></path>
                    </g>
                    <g id="key" transform="translate(0.000000, 1.658537)" fill-rule="nonzero">
                        <path d="M27.3658537,9.40706564 C27.3658537,14.6024088 23.1541846,18.8140244 17.9588415,18.8140244 C17.3591444,18.8140244 16.7728096,18.7572616 16.2042733,18.6499896 L14.9208576,20.0938591 C14.6774281,20.3677193 14.328502,20.5244034 13.9620906,20.5243902 L11.972561,20.5243902 L11.972561,22.6623476 C11.972561,23.3708132 11.3982522,23.945122 10.6897866,23.945122 L8.55182927,23.945122 L8.55182927,26.0830793 C8.55182927,26.7915449 7.97752048,27.3658537 7.26905488,27.3658537 L1.28277439,27.3658537 C0.574308784,27.3658537 0,26.7915449 0,26.0830793 L0,21.910909 C0,21.5707066 0.135172351,21.2444008 0.37569255,21.0038272 L9.02383679,12.3556829 C8.71794855,11.4281301 8.55182927,10.4370266 8.55182927,9.4070122 C8.55182927,4.21166902 12.7634448,5.34489329e-05 17.958788,0 C23.169471,-5.34489329e-05 27.3658537,4.19632917 27.3658537,9.40706564 Z M17.9588415,6.84146341 C17.9588415,8.25839463 19.107459,9.4070122 20.5243902,9.4070122 C21.9413215,9.4070122 23.089939,8.25839463 23.089939,6.84146341 C23.089939,5.4245322 21.9413215,4.27591463 20.5243902,4.27591463 C19.107459,4.27591463 17.9588415,5.4245322 17.9588415,6.84146341 Z" id="Shape"></path>
                    </g>
                    <g id="house" transform="translate(35.658537, 0.000000)">
                        <path d="M31.5755588,8.28615974 L16.8748936,0.181627689 C16.4368137,-0.060542563 15.9046497,-0.060542563 15.4665698,0.181627689 L0.765904656,8.28615974 C0.294013304,8.54467277 0,9.04535606 0,9.58912484 L0,11.6795147 C0,12.499625 0.6585898,13.1652218 1.47006652,13.1652218 L2.94013304,13.1652218 L2.94013304,25.0508783 C2.94013304,25.8709886 3.59872284,26.5365854 4.41019956,26.5365854 L7.35033259,26.5365854 L7.35033259,14.6509288 L24.9911308,14.6509288 L24.9911308,26.5365854 L27.9312639,26.5365854 C28.7427406,26.5365854 29.4013304,25.8709886 29.4013304,25.0508783 L29.4013304,13.1652218 L30.8713969,13.1652218 C31.6828736,13.1652218 32.3414634,12.499625 32.3414634,11.6795147 L32.3414634,9.58912484 C32.3414634,9.04535606 32.0474501,8.54467277 31.5755588,8.28615974" id="Fill-558"></path>
                        <polygon id="Fill-559" points="10.2904656 20.6395664 22.786031 20.6395664 22.786031 17.6910569 10.2904656 17.6910569"></polygon>
                        <polygon id="Fill-560" points="10.2904656 26.5365854 22.786031 26.5365854 22.786031 23.5880759 10.2904656 23.5880759"></polygon>
                    </g>
                    <g id="computer" transform="translate(0.000000, 39.804878)">
                        <path d="M21.8926829,24.601626 C21.1373854,24.601626 20.5243902,23.982439 20.5243902,23.2195122 C20.5243902,22.4565854 21.1373854,21.8373984 21.8926829,21.8373984 C22.6479805,21.8373984 23.2609756,22.4565854 23.2609756,23.2195122 C23.2609756,23.982439 22.6479805,24.601626 21.8926829,24.601626 M24.6292683,19.0731707 L2.73658537,19.0731707 C1.22599024,19.0731707 0,20.3115447 0,21.8373984 L0,24.601626 C0,26.1274797 1.22599024,27.3658537 2.73658537,27.3658537 L24.6292683,27.3658537 C26.1412317,27.3658537 27.3658537,26.1274797 27.3658537,24.601626 L27.3658537,21.8373984 C27.3658537,20.3115447 26.1412317,19.0731707 24.6292683,19.0731707" id="Fill-122"></path>
                        <polygon id="Fill-123" points="7.46341463 13.2682927 19.0731707 13.2682927 19.0731707 4.97560976 7.46341463 4.97560976"></polygon>
                        <path d="M20.679878,14.0337711 C20.679878,14.4211032 20.3780244,14.7354597 20.0060976,14.7354597 L6.5304878,14.7354597 C6.15856098,14.7354597 5.85670732,14.4211032 5.85670732,14.0337711 L5.85670732,4.21013133 C5.85670732,3.82279925 6.15856098,3.50844278 6.5304878,3.50844278 L20.0060976,3.50844278 C20.3780244,3.50844278 20.679878,3.82279925 20.679878,4.21013133 L20.679878,14.0337711 Z M21.3536585,0 L5.18292683,0 C3.69656707,0 2.48780488,1.25882927 2.48780488,2.80675422 L2.48780488,15.4371482 C2.48780488,16.9850732 3.69656707,18.2439024 5.18292683,18.2439024 L21.3536585,18.2439024 C22.8400183,18.2439024 24.0487805,16.9850732 24.0487805,15.4371482 L24.0487805,2.80675422 C24.0487805,1.25882927 22.8400183,0 21.3536585,0 L21.3536585,0 Z" id="Fill-124"></path>
                    </g>
                </g>
            </g>
        </g>
    </g>
</svg>