<?xml version="1.0" encoding="UTF-8"?>
<svg width="73px" height="62px" viewBox="0 0 73 62" version="1.1" xmlns="http://www.w3.org/2000/svg" xmlns:xlink="http://www.w3.org/1999/xlink">
    <!-- Generator: Sketch 51.2 (57519) - http://www.bohemiancoding.com/sketch -->
    <title>symbollogo</title>
    <desc>Created with Sketch.</desc>
    <defs>
        <path d="M30,54.5 L30,59.5 C30,60.8807292 28.8807292,62 27.5,62 L2.5,62 C1.11927083,62 0,60.8807292 0,59.5 L0,54.5 C0,53.1192708 1.11927083,52 2.5,52 L27.5,52 C28.8807292,52 30,53.1192708 30,54.5 Z M27.5,50.3333333 C28.0503444,50.3328508 28.5952714,50.4420062 29.1029688,50.6544271 L24.0755208,43.1132292 C23.6118264,42.4177526 22.8312475,42.0000132 21.9953646,42 L8.00463542,42 C7.16876395,42.0000027 6.38819612,42.4177466 5.92453125,43.1132292 L0.89703125,50.6544271 C1.4047286,50.4420062 1.94965556,50.3328508 2.5,50.3333333 L27.5,50.3333333 Z M25,55.3333333 C24.0795313,55.3333333 23.3333333,56.0795313 23.3333333,57 C23.3333333,57.9204687 24.0795313,58.6666667 25,58.6666667 C25.9204688,58.6666667 26.6666667,57.9204687 26.6666667,57 C26.6666667,56.0795313 25.9204688,55.3333333 25,55.3333333 Z M20,55.3333333 C19.0795313,55.3333333 18.3333333,56.0795313 18.3333333,57 C18.3333333,57.9204687 19.0795313,58.6666667 20,58.6666667 C20.9204688,58.6666667 21.6666667,57.9204687 21.6666667,57 C21.6666667,56.0795313 20.9204688,55.3333333 20,55.3333333 Z" id="path-1"></path>
        <path d="M70.3303571,27.25 L69.2142857,27.25 L69.2142857,2.3125 C69.2142857,1.58761719 68.6146763,1 67.875,1 L49.125,1 C48.3853237,1 47.7857143,1.58761719 47.7857143,2.3125 L47.7857143,27.25 L46.6696429,27.25 C46.2998326,27.25 46,27.5438359 46,27.90625 L46,29 L71,29 L71,27.90625 C71,27.5438359 70.7001674,27.25 70.3303571,27.25 Z M53.1428571,5.15625 C53.1428571,4.79383594 53.4426897,4.5 53.8125,4.5 L56.0446429,4.5 C56.4144531,4.5 56.7142857,4.79383594 56.7142857,5.15625 L56.7142857,7.34375 C56.7142857,7.70616406 56.4144531,8 56.0446429,8 L53.8125,8 C53.4426897,8 53.1428571,7.70616406 53.1428571,7.34375 L53.1428571,5.15625 Z M53.1428571,10.40625 C53.1428571,10.0438359 53.4426897,9.75 53.8125,9.75 L56.0446429,9.75 C56.4144531,9.75 56.7142857,10.0438359 56.7142857,10.40625 L56.7142857,12.59375 C56.7142857,12.9561641 56.4144531,13.25 56.0446429,13.25 L53.8125,13.25 C53.4426897,13.25 53.1428571,12.9561641 53.1428571,12.59375 L53.1428571,10.40625 Z M56.0446429,18.5 L53.8125,18.5 C53.4426897,18.5 53.1428571,18.2061641 53.1428571,17.84375 L53.1428571,15.65625 C53.1428571,15.2938359 53.4426897,15 53.8125,15 L56.0446429,15 C56.4144531,15 56.7142857,15.2938359 56.7142857,15.65625 L56.7142857,17.84375 C56.7142857,18.2061641 56.4144531,18.5 56.0446429,18.5 Z M60.2857143,27.25 L56.7142857,27.25 L56.7142857,22.65625 C56.7142857,22.2938359 57.0141183,22 57.3839286,22 L59.6160714,22 C59.9858817,22 60.2857143,22.2938359 60.2857143,22.65625 L60.2857143,27.25 Z M63.8571429,17.84375 C63.8571429,18.2061641 63.5573103,18.5 63.1875,18.5 L60.9553571,18.5 C60.5855469,18.5 60.2857143,18.2061641 60.2857143,17.84375 L60.2857143,15.65625 C60.2857143,15.2938359 60.5855469,15 60.9553571,15 L63.1875,15 C63.5573103,15 63.8571429,15.2938359 63.8571429,15.65625 L63.8571429,17.84375 Z M63.8571429,12.59375 C63.8571429,12.9561641 63.5573103,13.25 63.1875,13.25 L60.9553571,13.25 C60.5855469,13.25 60.2857143,12.9561641 60.2857143,12.59375 L60.2857143,10.40625 C60.2857143,10.0438359 60.5855469,9.75 60.9553571,9.75 L63.1875,9.75 C63.5573103,9.75 63.8571429,10.0438359 63.8571429,10.40625 L63.8571429,12.59375 Z M63.8571429,7.34375 C63.8571429,7.70616406 63.5573103,8 63.1875,8 L60.9553571,8 C60.5855469,8 60.2857143,7.70616406 60.2857143,7.34375 L60.2857143,5.15625 C60.2857143,4.79383594 60.5855469,4.5 60.9553571,4.5 L63.1875,4.5 C63.5573103,4.5 63.8571429,4.79383594 63.8571429,5.15625 L63.8571429,7.34375 Z" id="path-3"></path>
    </defs>
    <g id="Page-1" stroke="none" stroke-width="1" fill="none" fill-rule="evenodd">
        <g id="Artboard" transform="translate(-94.000000, -22.000000)">
            <g id="header" transform="translate(-2.000000, 1.000000)">
                <g id="symbollogo" transform="translate(96.000000, 21.000000)">
                    <g id="key" transform="translate(4.000000, 0.658537)" fill="#1F1F1F" fill-rule="nonzero">
                        <path d="M27.3658537,9.40706564 C27.3658537,14.6024088 23.1541846,18.8140244 17.9588415,18.8140244 C17.3591444,18.8140244 16.7728096,18.7572616 16.2042733,18.6499896 L14.9208576,20.0938591 C14.6774281,20.3677193 14.328502,20.5244034 13.9620906,20.5243902 L11.972561,20.5243902 L11.972561,22.6623476 C11.972561,23.3708132 11.3982522,23.945122 10.6897866,23.945122 L8.55182927,23.945122 L8.55182927,26.0830793 C8.55182927,26.7915449 7.97752048,27.3658537 7.26905488,27.3658537 L1.28277439,27.3658537 C0.574308784,27.3658537 0,26.7915449 0,26.0830793 L0,21.910909 C0,21.5707066 0.135172351,21.2444008 0.37569255,21.0038272 L9.02383679,12.3556829 C8.71794855,11.4281301 8.55182927,10.4370266 8.55182927,9.4070122 C8.55182927,4.21166902 12.7634448,5.34489329e-05 17.958788,0 C23.169471,-5.34489329e-05 27.3658537,4.19632917 27.3658537,9.40706564 Z M17.9588415,6.84146341 C17.9588415,8.25839463 19.107459,9.4070122 20.5243902,9.4070122 C21.9413215,9.4070122 23.089939,8.25839463 23.089939,6.84146341 C23.089939,5.4245322 21.9413215,4.27591463 20.5243902,4.27591463 C19.107459,4.27591463 17.9588415,5.4245322 17.9588415,6.84146341 Z" id="Shape"></path>
                    </g>
                    <path d="M70.28125,40 L46.71875,40 C45.217207,40 44,41.2311979 44,42.75 L44,59.25 C44,60.7688021 45.217207,62 46.71875,62 L70.28125,62 C71.782793,62 73,60.7688021 73,59.25 L73,42.75 C73,41.2311979 71.782793,40 70.28125,40 Z M53.96875,44.5833333 C56.1584766,44.5833333 57.9335938,46.3788542 57.9335938,48.59375 C57.9335938,50.8086458 56.1584766,52.6041667 53.96875,52.6041667 C51.7790234,52.6041667 50.0039062,50.8086458 50.0039062,48.59375 C50.0039062,46.3788542 51.7790234,44.5833333 53.96875,44.5833333 Z M60.3125,56.2135417 C60.3125,56.8780104 59.7799648,57.4166667 59.1230469,57.4166667 L48.8144531,57.4166667 C48.1575352,57.4166667 47.625,56.8780104 47.625,56.2135417 L47.625,55.2850156 C47.625,54.1808906 48.3678984,53.2183906 49.4269082,52.9506094 L51.1940957,52.5037344 C52.6363926,53.5530885 54.8867812,53.8545 56.7434043,52.5037344 L58.5105918,52.9506094 C59.5696016,53.2183906 60.3125,54.1808333 60.3125,55.2850156 L60.3125,56.2135417 Z M69.375,53.9791667 C69.375,54.3588385 69.0706699,54.6666667 68.6953125,54.6666667 L62.8046875,54.6666667 C62.4293301,54.6666667 62.125,54.3588385 62.125,53.9791667 L62.125,53.5208333 C62.125,53.1411615 62.4293301,52.8333333 62.8046875,52.8333333 L68.6953125,52.8333333 C69.0706699,52.8333333 69.375,53.1411615 69.375,53.5208333 L69.375,53.9791667 Z M69.375,50.3125 C69.375,50.6921719 69.0706699,51 68.6953125,51 L62.8046875,51 C62.4293301,51 62.125,50.6921719 62.125,50.3125 L62.125,49.8541667 C62.125,49.4744948 62.4293301,49.1666667 62.8046875,49.1666667 L68.6953125,49.1666667 C69.0706699,49.1666667 69.375,49.4744948 69.375,49.8541667 L69.375,50.3125 Z M69.375,46.6458333 C69.375,47.0255052 69.0706699,47.3333333 68.6953125,47.3333333 L62.8046875,47.3333333 C62.4293301,47.3333333 62.125,47.0255052 62.125,46.6458333 L62.125,46.1875 C62.125,45.8078281 62.4293301,45.5 62.8046875,45.5 L68.6953125,45.5 C69.0706699,45.5 69.375,45.8078281 69.375,46.1875 L69.375,46.6458333 Z" id="address-card" fill="#000000" fill-rule="nonzero"></path>
                    <mask id="mask-2" fill="white">
                        <use xlink:href="#path-1"></use>
                    </mask>
                    <use id="hdd" fill="#1F1F1F" fill-rule="nonzero" xlink:href="#path-1"></use>
                    <mask id="mask-4" fill="white">
                        <use xlink:href="#path-3"></use>
                    </mask>
                    <use id="building" fill="#1F1F1F" fill-rule="nonzero" xlink:href="#path-3"></use>
                </g>
            </g>
        </g>
    </g>
</svg>