<?xml version="1.0" encoding="UTF-8"?>
<svg width="328px" height="56px" viewBox="0 0 328 56" version="1.1" xmlns="http://www.w3.org/2000/svg" xmlns:xlink="http://www.w3.org/1999/xlink">
    <title>blue</title>
    <g id="Style-guide" stroke="none" stroke-width="1" fill="none" fill-rule="evenodd">
        <g id="Logos-and-Wordmarks" transform="translate(-36.000000, -222.000000)" fill="#002855">
            <g id="blue" transform="translate(36.000000, 222.000000)">
                <path d="M286.757,50.151 L291.994,36.296 L292.908,37.082 C296.123,39.707 300.484,41.937 304.603,42.025 C308.285,42.111 310.085,41.131 309.595,38.016 C309.23,35.689 306.603,35.279 304.964,34.955 L301.361,34.236 C294.353,32.928 288.462,28.604 288.462,20.418 C288.462,8.04 299.134,1.097 309.867,1.097 C315.511,1.097 320.679,2.533 325.523,5.682 L320.976,17.959 C318.482,16.163 314.705,13.635 309.923,13.46 C308.351,13.4 304.755,14.225 305.908,17.879 C306.404,19.433 308.634,20.086 310.003,20.418 L314.066,21.399 C321.664,23.167 327.16,27.491 327.16,36.328 C327.16,48.771 316.421,54.932 305.75,54.932 C299.529,54.932 292.32,53.162 286.757,50.151" id="Fill-10"></path>
                <polygon id="Fill-11" points="264.927 54.152 282.892 54.152 282.892 1.947 264.927 1.947"></polygon>
                <polyline id="Fill-12" points="244.322 1.947 263.048 1.947 243.925 54.152 228.734 54.152 209.677 1.947 228.335 1.947 236.332 33.448 244.322 1.947"></polyline>
                <path d="M165.335,54.152 L184.328,54.152 L185.767,47.595 L199.324,47.595 L201.125,54.152 L220.121,54.152 L202.335,1.947 L182.417,1.947 L165.335,54.152 Z M192.578,17.015 L192.578,17.015 C192.91,19.238 196.179,35.214 196.179,35.214 L189,35.214 L192.578,17.015 L192.578,17.015 Z" id="Fill-13"></path>
                <path d="M136.78,39.162 L138.009,39.162 C144.034,39.162 148.503,35.547 148.503,28.736 C148.503,21.399 144.541,17.307 137.924,17.307 L136.78,17.307 L136.78,39.162 Z M118.702,1.947 L137.105,1.947 C153.809,1.947 166.575,9.616 166.575,28.803 C166.575,44.261 156.167,54.152 141.56,54.152 L118.702,54.123 L118.702,1.947 L118.702,1.947 Z" id="Fill-14"></path>
                <path d="M107.767,3.585 L108.74,12.148 C108.971,14.185 110.129,19.063 108.7,18.409 C107.799,18.006 107.063,15.791 106.326,13.831 C105.952,12.834 104.172,8.119 103.706,7.772 C101.458,6.087 95.848,4.192 92.053,4.176 C80.54,4.132 72.925,12.622 72.925,27.689 C72.925,38.491 78.099,51.457 91.263,51.457 C95.979,51.457 105.013,49.972 107.473,43.263 C108.581,40.225 109.6,37.529 110.337,38.344 C110.88,38.945 110.172,41.377 109.844,42.683 C108.292,48.907 108.208,50.791 107.716,51.031 C101.769,54.015 94.143,54.999 87.466,54.999 C66.244,54.999 58.91,42.619 58.91,30.242 C58.91,8.76 72.107,-0.131 92.571,0.64 C97.742,0.834 102.918,1.754 107.767,3.585" id="Fill-15"></path>
                <path d="M45.089,4.536 L41.694,3.35 C40.549,2.322 41.94,2.037 41.94,2.037 C41.94,2.037 46.852,2.946 59.093,1.914 C59.093,1.914 60.156,2.122 59.418,2.985 L55.406,4.704 C52.79,5.845 52.79,5.19 52.79,8.056 L52.767,34.661 C52.767,55.469 31.599,54.999 27.473,54.999 C25.511,54.999 6.251,54.999 6.251,38.295 L6.251,10.136 C6.251,5.223 6.775,5.357 5.143,4.779 L0.231,2.935 C0.231,2.935 -0.597,1.76 0.882,1.835 C4.895,2.037 10.709,2.899 24.217,1.914 C24.217,1.914 25.402,2.201 24.624,3.06 L20.697,4.209 C17.585,5.601 17.997,4.536 17.913,7.728 L18.009,35.496 C18.009,42.307 21.514,50.734 32.384,50.734 C47.386,50.734 47.526,37.761 47.526,34.879 L47.552,7.368 C47.712,4.779 47.386,5.517 45.089,4.536" id="Fill-17"></path>
            </g>
        </g>
    </g>
</svg>